<?xml version="1.0" encoding="UTF-8" standalone="no"?>
<!-- Created with Fritzing (http://www.fritzing.org/) -->

<svg
   version="1.2"
   width="2.16535in"
   x="0in"
   y="0in"
   viewBox="0 0 155.906 62.3622"
   height="0.866142in"
   id="svg137"
   sodipodi:docname="DRO-traces.svg"
   inkscape:version="1.3.2 (1:1.3.2+202311252150+091e20ef0f)"
   xmlns:inkscape="http://www.inkscape.org/namespaces/inkscape"
   xmlns:sodipodi="http://sodipodi.sourceforge.net/DTD/sodipodi-0.dtd"
   xmlns="http://www.w3.org/2000/svg"
   xmlns:svg="http://www.w3.org/2000/svg">
  <defs
     id="defs137" />
  <sodipodi:namedview
     id="namedview137"
     pagecolor="#ffffff"
     bordercolor="#666666"
     borderopacity="1.0"
     inkscape:showpageshadow="2"
     inkscape:pageopacity="0.0"
     inkscape:pagecheckerboard="0"
     inkscape:deskcolor="#d1d1d1"
     inkscape:document-units="in"
     inkscape:zoom="5.0511466"
     inkscape:cx="103.9368"
     inkscape:cy="41.673707"
     inkscape:window-width="1600"
     inkscape:window-height="850"
     inkscape:window-x="0"
     inkscape:window-y="0"
     inkscape:window-maximized="1"
     inkscape:current-layer="svg137" />
  <path
     id="path238"
     style="color:#000000;fill:#000000;-inkscape-stroke:none"
     d="M -17.800873 7.407582 C -15.939021 7.407582 -14.400953 8.9485794 -14.400953 10.810432 C -14.400953 10.945031 -14.410233 11.078111 -14.425856 11.208871 L -5.7407522 15.55362 C -5.1288074 14.970202 -4.3043161 14.608791 -3.4028496 14.608791 C -1.5409974 14.608791 0 16.148324 0 18.010176 C -4.4409105e-16 19.872028 -1.5409974 21.41156 -3.4028496 21.41156 C -5.2647016 21.41156 -6.8027694 19.872028 -6.8027694 18.010176 C -6.8027694 17.874581 -6.7937179 17.740502 -6.7778669 17.608806 L -15.46297 13.265522 C -16.074952 13.849147 -16.899225 14.210351 -17.800873 14.210351 C -19.25915 14.210351 -20.51897 13.267044 -20.997178 11.96327 L -86.604938 11.96327 C -87.082618 13.267061 -88.342954 14.210351 -89.801244 14.210351 C -91.259521 14.210351 -92.519341 13.267044 -92.997549 11.96327 L -93.804682 11.96327 C -94.282891 13.267044 -95.544175 14.210351 -97.002453 14.210351 C -98.864305 14.210351 -100.40237 12.672284 -100.40237 10.810432 C -100.40237 8.9485794 -98.864305 7.407582 -97.002453 7.407582 C -95.544175 7.407582 -94.282891 8.3532996 -93.804682 9.6575936 L -92.997549 9.6575936 C -92.519341 8.3532996 -91.259521 7.407582 -89.801244 7.407582 C -88.342954 7.407582 -87.082618 8.3532831 -86.604938 9.6575936 L -20.997178 9.6575936 C -20.51897 8.3532996 -19.25915 7.407582 -17.800873 7.407582 z M -104.20073 7.407582 C -102.33888 7.407582 -100.79935 8.9485794 -100.79935 10.810432 C -100.79935 12.672284 -102.33888 14.210351 -104.20073 14.210351 C -105.65901 14.210351 -106.92029 13.267044 -107.3985 11.96327 L -115.40538 11.96327 C -115.88359 13.267044 -117.14341 14.210351 -118.60168 14.210351 C -119.67344 14.210351 -120.63763 13.700313 -121.26332 12.912493 L -136.801 18.092207 C -136.84574 19.9168 -138.36668 21.41156 -140.20092 21.41156 C -141.65986 21.41156 -142.92244 20.466756 -143.40015 19.161549 L -146.24929 19.161549 L -146.24929 45.657779 L -89.801244 45.657779 A 1.152 1.152 0 0 1 -89.228487 45.811588 A 1.152 1.152 0 0 1 -89.224092 45.813053 A 1.152 1.152 0 0 1 -89.219698 45.817448 A 1.152 1.152 0 0 1 -88.986786 45.99616 L -84.045843 50.937103 C -83.606252 50.727642 -83.116172 50.608976 -82.6015 50.608976 C -80.854039 50.608976 -79.391037 51.964648 -79.217693 53.670516 L -53.656038 60.058732 L -47.077391 60.058732 L -42.474828 55.454704 C -42.684594 55.014635 -42.802955 54.525432 -42.802955 54.010361 C -42.802955 52.148509 -41.264887 50.608976 -39.403035 50.608976 C -37.541183 50.608976 -36.000185 52.148509 -36.000185 54.010361 C -36.000185 55.872213 -37.541183 57.411746 -39.403035 57.411746 C -39.917494 57.411746 -40.406463 57.294598 -40.845913 57.085084 L -45.786857 62.026027 A 1.152 1.152 0 0 1 -45.829338 62.058254 A 1.152 1.152 0 0 1 -45.977288 62.171048 A 1.152 1.152 0 0 1 -46.05639 62.220853 A 1.152 1.152 0 0 1 -46.257074 62.304349 A 1.152 1.152 0 0 1 -46.317133 62.324857 A 1.152 1.152 0 0 1 -46.601314 62.362943 L -53.801058 62.362943 A 1.152 1.152 0 0 1 -54.111607 62.320462 L -79.783126 55.901484 C -80.397849 56.808854 -81.436689 57.411746 -82.6015 57.411746 C -84.463352 57.411746 -86.001419 55.872213 -86.001419 54.010361 C -86.001419 53.495723 -85.884193 53.005587 -85.674758 52.566018 L -90.27732 47.963455 L -147.40066 47.963455 A 1.152 1.152 0 0 1 -147.59988 47.944412 A 1.152 1.152 0 0 1 -147.65994 47.931228 A 1.152 1.152 0 0 1 -147.80935 47.885818 A 1.152 1.152 0 0 1 -147.8533 47.86824 A 1.152 1.152 0 0 1 -148.03494 47.771559 A 1.152 1.152 0 0 1 -148.05838 47.753981 A 1.152 1.152 0 0 1 -148.19608 47.641188 A 1.152 1.152 0 0 1 -148.2327 47.603102 A 1.152 1.152 0 0 1 -148.33963 47.474195 A 1.152 1.152 0 0 1 -148.36307 47.443433 A 1.152 1.152 0 0 1 -148.45535 47.27058 A 1.152 1.152 0 0 1 -148.47586 47.214916 A 1.152 1.152 0 0 1 -148.52274 47.061107 A 1.152 1.152 0 0 1 -148.53153 47.014231 A 1.152 1.152 0 0 1 -148.55203 46.810617 L -148.55203 18.010176 A 1.152 1.152 0 0 1 -148.51102 17.702557 A 1.152 1.152 0 0 1 -148.50076 17.67033 A 1.152 1.152 0 0 1 -148.44803 17.531169 A 1.152 1.152 0 0 1 -148.44657 17.529704 A 1.152 1.152 0 0 1 -148.37625 17.397868 A 1.152 1.152 0 0 1 -148.35721 17.368571 A 1.152 1.152 0 0 1 -148.02322 17.040444 A 1.152 1.152 0 0 1 -148.01883 17.037514 A 1.152 1.152 0 0 1 -147.89725 16.971596 A 1.152 1.152 0 0 1 -147.86355 16.955483 A 1.152 1.152 0 0 1 -147.73758 16.908608 A 1.152 1.152 0 0 1 -147.70682 16.899818 A 1.152 1.152 0 0 1 -147.56472 16.869057 A 1.152 1.152 0 0 1 -147.55154 16.867592 A 1.152 1.152 0 0 1 -147.40066 16.857338 L -143.39869 16.857338 C -142.92049 15.553547 -141.65921 14.608791 -140.20092 14.608791 C -139.12971 14.608791 -138.16555 15.119507 -137.53928 15.906649 L -122.00014 10.7284 C -121.95545 8.9038075 -120.43594 7.407582 -118.60168 7.407582 C -117.14341 7.407582 -115.88359 8.3532996 -115.40538 9.6575936 L -107.3985 9.6575936 C -106.92029 8.3532996 -105.65901 7.407582 -104.20073 7.407582 z M -61.002267 14.608791 C -59.543978 14.608791 -58.282697 15.553547 -57.804497 16.857338 L -32.201826 16.857338 A 1.152 1.152 0 0 1 -32.125654 16.871986 A 1.152 1.152 0 0 1 -31.86198 16.924721 A 1.152 1.152 0 0 1 -31.725749 16.968666 A 1.152 1.152 0 0 1 -31.686198 16.980385 L -20.138776 22.753364 C -19.52651 22.170314 -18.701604 21.808535 -17.800873 21.808535 C -16.342565 21.808535 -15.083699 22.754211 -14.606032 24.058547 L -6.5976902 24.058547 C -6.1200237 22.754211 -4.8611572 21.808535 -3.4028496 21.808535 C -1.5409974 21.808535 0 23.349534 0 25.211385 C -4.4409105e-16 27.073237 -1.5409974 28.611305 -3.4028496 28.611305 C -4.8611572 28.611305 -6.1200237 27.666575 -6.5976902 26.362758 L -14.606032 26.362758 C -15.083699 27.666575 -16.342565 28.611305 -17.800873 28.611305 C -19.662725 28.611305 -21.203722 27.073237 -21.203722 25.211385 C -21.203722 25.075771 -21.19323 24.941748 -21.177355 24.810015 L -32.477218 19.161549 L -57.803032 19.161549 C -58.280749 20.466756 -59.543332 21.41156 -61.002267 21.41156 C -62.461192 21.41156 -63.721366 20.46674 -64.198573 19.161549 L -72.203985 19.161549 C -72.681191 20.46674 -73.941366 21.41156 -75.400291 21.41156 C -76.859215 21.41156 -78.120336 20.46674 -78.598061 19.161549 L -86.603473 19.161549 C -87.080671 20.466756 -88.342308 21.41156 -89.801244 21.41156 C -90.964901 21.41156 -92.004663 20.808632 -92.619618 19.902764 L -115.21641 25.55123 C -115.39044 27.256421 -116.85472 28.611305 -118.60168 28.611305 C -120.06 28.611305 -121.31886 27.666575 -121.79653 26.362758 L -137.00461 26.362758 C -137.4828 27.666575 -138.74261 28.611305 -140.20092 28.611305 C -142.06278 28.611305 -143.60377 27.073237 -143.60377 25.211385 C -143.60377 23.349534 -142.06278 21.808535 -140.20092 21.808535 C -138.74261 21.808535 -137.4828 22.754211 -137.00461 24.058547 L -121.79653 24.058547 C -121.31886 22.754211 -120.06 21.808535 -118.60168 21.808535 C -117.43688 21.808535 -116.39804 22.411437 -115.78331 23.318797 L -93.18505 17.67033 C -93.01171 15.964459 -91.548708 14.608791 -89.801244 14.608791 C -88.342954 14.608791 -87.082618 15.553547 -86.604938 16.857338 L -78.596596 16.857338 C -78.118388 15.553563 -76.858568 14.608791 -75.400291 14.608791 C -73.942013 14.608791 -72.683139 15.553563 -72.20545 16.857338 L -64.197108 16.857338 C -63.719419 15.553563 -62.460545 14.608791 -61.002267 14.608791 z M -32.201826 21.808535 C -30.339974 21.808535 -28.800441 23.349534 -28.800441 25.211385 C -28.800441 25.726455 -28.918802 26.215874 -29.128568 26.655728 L -24.52454 31.258291 L -6.5991551 31.258291 C -6.1219488 29.953099 -4.8617741 29.008279 -3.4028496 29.008279 C -1.5409974 29.00828 0 30.547812 0 32.409664 C -4.4409105e-16 34.271516 -1.5409974 35.812513 -3.4028496 35.812513 C -4.8611572 35.812513 -6.1200237 34.866838 -6.5976902 33.562502 L -25.002082 33.562502 A 1.152 1.152 0 0 1 -25.815074 33.224121 A 1.152 1.152 0 0 1 -25.816539 33.224121 L -30.757483 28.283178 C -31.197074 28.492639 -31.687154 28.611305 -32.201826 28.611305 C -34.063678 28.611305 -35.603211 27.073237 -35.603211 25.211385 C -35.603211 23.349534 -34.063678 21.808535 -32.201826 21.808535 z M -53.801058 21.808535 C -51.939206 21.808535 -50.399674 23.349534 -50.399674 25.211385 C -50.399674 27.073237 -51.939206 28.611305 -53.801058 28.611305 C -55.26002 28.611305 -56.521131 27.666017 -56.998829 26.361293 L -57.803032 26.361293 C -58.280721 27.666033 -59.543294 28.611305 -61.002267 28.611305 C -62.864119 28.611305 -64.402187 27.073237 -64.402187 25.211385 C -64.402187 23.349534 -62.864119 21.808535 -61.002267 21.808535 C -59.543947 21.808535 -58.282674 22.754194 -57.804497 24.058547 L -56.997364 24.058547 C -56.519178 22.754211 -55.259366 21.808535 -53.801058 21.808535 z M -75.400291 21.808535 C -73.941983 21.808535 -72.683117 22.754211 -72.20545 24.058547 L -68.200547 24.058547 A 1.152 1.152 0 0 1 -67.888533 24.106887 A 1.152 1.152 0 0 1 -67.791853 24.140578 A 1.152 1.152 0 0 1 -67.57652 24.250442 A 1.152 1.152 0 0 1 -67.506207 24.295853 A 1.152 1.152 0 0 1 -67.282085 24.519975 A 1.152 1.152 0 0 1 -67.245463 24.578569 A 1.152 1.152 0 0 1 -67.128275 24.808551 A 1.152 1.152 0 0 1 -67.098978 24.893512 A 1.152 1.152 0 0 1 -67.049173 25.211385 L -67.049173 38.4595 L -35.399596 38.4595 C -34.922231 37.154158 -33.661233 36.209488 -32.201826 36.209488 C -30.339974 36.209488 -28.800441 37.747556 -28.800441 39.609408 C -28.800441 41.47126 -30.339974 43.012258 -32.201826 43.012258 C -33.660103 43.012258 -34.919923 42.06654 -35.398132 40.762246 L -68.200547 40.762246 A 1.152 1.152 0 0 1 -68.601916 40.681679 A 1.152 1.152 0 0 1 -68.719104 40.623085 A 1.152 1.152 0 0 1 -68.95348 40.466346 A 1.152 1.152 0 0 1 -69.05602 40.362342 A 1.152 1.152 0 0 1 -69.212759 40.130895 A 1.152 1.152 0 0 1 -69.274283 40.010777 A 1.152 1.152 0 0 1 -69.353384 39.610873 L -69.353384 26.362758 L -72.20545 26.362758 C -72.683117 27.666575 -73.941983 28.611305 -75.400291 28.611305 C -77.262143 28.611305 -78.80314 27.073237 -78.80314 25.211385 C -78.80314 23.349534 -77.262143 21.808535 -75.400291 21.808535 z M -39.403035 29.008279 C -37.541183 29.00828 -36.000185 30.547812 -36.000185 32.409664 C -36.000185 34.271516 -37.541183 35.812513 -39.403035 35.812513 C -40.861343 35.812513 -42.120209 34.866838 -42.597876 33.562502 L -43.405009 33.562502 C -43.883195 34.866838 -45.143007 35.812513 -46.601314 35.812513 C -48.059634 35.812513 -49.320908 34.866855 -49.799085 33.562502 L -57.804497 33.562502 C -58.282674 34.866855 -59.543947 35.812513 -61.002267 35.812513 C -62.864119 35.812513 -64.402187 34.271516 -64.402187 32.409664 C -64.402187 30.547812 -62.864119 29.008279 -61.002267 29.008279 C -59.543332 29.00828 -58.280749 29.953084 -57.803032 31.258291 L -49.800549 31.258291 C -49.322832 29.953084 -48.06025 29.008279 -46.601314 29.008279 C -45.14239 29.00828 -43.881269 29.953099 -43.403544 31.258291 L -42.59934 31.258291 C -42.122134 29.953099 -40.86196 29.008279 -39.403035 29.008279 z M -75.400291 29.008279 C -73.538438 29.008279 -72.000371 30.547812 -72.000371 32.409664 C -72.000371 34.271516 -73.538438 35.812513 -75.400291 35.812513 C -76.858598 35.812513 -78.11841 34.866838 -78.596596 33.562502 L -79.405194 33.562502 C -79.88338 34.866838 -81.143193 35.812513 -82.6015 35.812513 C -84.059807 35.812513 -85.318674 34.866838 -85.79634 33.562502 L -86.604938 33.562502 C -87.082595 34.866855 -88.342924 35.812513 -89.801244 35.812513 C -91.663096 35.812513 -93.202628 34.271516 -93.202628 32.409664 C -93.202628 30.547812 -91.663096 29.008279 -89.801244 29.008279 C -88.342308 29.008279 -87.080671 29.953084 -86.603473 31.258291 L -85.797805 31.258291 C -85.320599 29.953099 -84.060424 29.008279 -82.6015 29.008279 C -81.142576 29.008279 -79.881455 29.953099 -79.403729 31.258291 L -78.598061 31.258291 C -78.120336 29.953099 -76.859215 29.008279 -75.400291 29.008279 z M -111.40048 29.008279 C -109.53863 29.008279 -108.00056 30.547812 -108.00056 32.409664 C -108.00056 34.271516 -109.53863 35.812513 -111.40048 35.812513 C -112.85878 35.812513 -114.1186 34.866838 -114.59678 33.562502 L -137.00461 33.562502 C -137.4828 34.866838 -138.74261 35.812513 -140.20092 35.812513 C -142.06278 35.812513 -143.60377 34.271516 -143.60377 32.409664 C -143.60377 30.547812 -142.06278 29.008279 -140.20092 29.008279 C -138.742 29.008279 -137.48087 29.953099 -137.00315 31.258291 L -114.59825 31.258291 C -114.12052 29.953099 -112.8594 29.008279 -111.40048 29.008279 z M -3.4028496 36.209488 C -1.5409974 36.209488 0 37.747556 0 39.609408 C -4.4409105e-16 41.47126 -1.5409974 43.012258 -3.4028496 43.012258 C -4.8611268 43.012258 -6.1200011 42.06654 -6.5976902 40.762246 L -7.4048233 40.762246 C -7.8830319 42.06654 -9.1428511 43.012258 -10.601129 43.012258 C -12.46298 43.012258 -14.003978 41.47126 -14.003978 39.609408 C -14.003978 37.747556 -12.46298 36.209488 -10.601129 36.209488 C -9.1417216 36.209488 -7.8807234 37.154158 -7.4033584 38.4595 L -6.5991551 38.4595 C -6.122309 37.154158 -4.8622563 36.209488 -3.4028496 36.209488 z M -140.20092 36.209488 C -138.74151 36.209488 -137.48051 37.154158 -137.00315 38.4595 L -89.801244 38.4595 A 1.152 1.152 0 0 1 -89.593235 38.515164 A 1.152 1.152 0 0 1 -89.373507 38.541531 L -53.582795 52.857523 L -49.799085 52.857523 C -49.320908 51.553689 -48.059634 50.608976 -46.601314 50.608976 C -44.739463 50.608976 -43.199929 52.148509 -43.199929 54.010361 C -43.199929 55.872213 -44.739463 57.411746 -46.601314 57.411746 C -48.059634 57.411746 -49.320908 56.466087 -49.799085 55.161734 L -53.801058 55.161734 A 1.152 1.152 0 0 1 -54.228795 55.079703 L -90.023901 40.762246 L -137.00461 40.762246 C -137.48282 42.06654 -138.74264 43.012258 -140.20092 43.012258 C -142.06278 43.012258 -143.60377 41.47126 -143.60377 39.609408 C -143.60377 37.747556 -142.06278 36.209488 -140.20092 36.209488 z "
     transform="scale(-1,1)" />
</svg>
