<?xml version="1.0" encoding="UTF-8" standalone="no"?>
<!-- Created with Fritzing (http://www.fritzing.org/) -->

<svg
   version="1.2"
   width="2.16535in"
   x="0in"
   y="0in"
   viewBox="0 0 155.906 62.3622"
   height="0.866142in"
   id="svg137"
   sodipodi:docname="DRO-holes.svg"
   inkscape:version="1.3.2 (1:1.3.2+202311252150+091e20ef0f)"
   xmlns:inkscape="http://www.inkscape.org/namespaces/inkscape"
   xmlns:sodipodi="http://sodipodi.sourceforge.net/DTD/sodipodi-0.dtd"
   xmlns="http://www.w3.org/2000/svg"
   xmlns:svg="http://www.w3.org/2000/svg">
  <defs
     id="defs137" />
  <sodipodi:namedview
     id="namedview137"
     pagecolor="#ffffff"
     bordercolor="#666666"
     borderopacity="1.0"
     inkscape:showpageshadow="2"
     inkscape:pageopacity="0.0"
     inkscape:pagecheckerboard="0"
     inkscape:deskcolor="#d1d1d1"
     inkscape:document-units="in"
     inkscape:zoom="5.0511466"
     inkscape:cx="103.9368"
     inkscape:cy="41.673706"
     inkscape:window-width="1600"
     inkscape:window-height="850"
     inkscape:window-x="0"
     inkscape:window-y="0"
     inkscape:window-maximized="1"
     inkscape:current-layer="svg137"
     showgrid="false" />
  <path
     id="connector0pin"
     d="M -17.800873 8.8255581 A 1.98426 1.98426 0 0 1 -15.817464 10.810432 A 1.98426 1.98426 0 0 1 -17.800873 12.79384 A 1.98426 1.98426 0 0 1 -19.785746 10.810432 A 1.98426 1.98426 0 0 1 -17.800873 8.8255581 z M -89.801244 8.8255581 A 1.98426 1.98426 0 0 1 -87.81637 10.810432 A 1.98426 1.98426 0 0 1 -89.801244 12.79384 A 1.98426 1.98426 0 0 1 -91.786117 10.810432 A 1.98426 1.98426 0 0 1 -89.801244 8.8255581 z M -97.000988 8.8255581 A 1.98426 1.98426 0 0 1 -95.017579 10.810432 A 1.98426 1.98426 0 0 1 -97.000988 12.79384 A 1.98426 1.98426 0 0 1 -98.985861 10.810432 A 1.98426 1.98426 0 0 1 -97.000988 8.8255581 z M -104.20073 8.8255581 A 1.98426 1.98426 0 0 1 -102.21732 10.810432 A 1.98426 1.98426 0 0 1 -104.20073 12.79384 A 1.98426 1.98426 0 0 1 -106.18561 10.810432 A 1.98426 1.98426 0 0 1 -104.20073 8.8255581 z M -118.60168 8.8255581 A 1.98426 1.98426 0 0 1 -116.61681 10.810432 A 1.98426 1.98426 0 0 1 -118.60168 12.79384 A 1.98426 1.98426 0 0 1 -120.58509 10.810432 A 1.98426 1.98426 0 0 1 -118.60168 8.8255581 z M -3.4013847 16.025302 A 1.98426 1.98426 0 0 1 -1.4179761 18.010176 A 1.98426 1.98426 0 0 1 -3.4013847 19.995049 A 1.98426 1.98426 0 0 1 -5.3862582 18.010176 A 1.98426 1.98426 0 0 1 -3.4013847 16.025302 z M -61.000802 16.026767 A 1.98426 1.98426 0 0 1 -59.017394 18.010176 A 1.98426 1.98426 0 0 1 -61.000802 19.995049 A 1.98426 1.98426 0 0 1 -62.985676 18.010176 A 1.98426 1.98426 0 0 1 -61.000802 16.026767 z M -75.401755 16.026767 A 1.98426 1.98426 0 0 1 -73.416882 18.010176 A 1.98426 1.98426 0 0 1 -75.401755 19.995049 A 1.98426 1.98426 0 0 1 -77.385164 18.010176 A 1.98426 1.98426 0 0 1 -75.401755 16.026767 z M -89.801244 16.026767 A 1.98426 1.98426 0 0 1 -87.81637 18.010176 A 1.98426 1.98426 0 0 1 -89.801244 19.995049 A 1.98426 1.98426 0 0 1 -91.786117 18.010176 A 1.98426 1.98426 0 0 1 -89.801244 16.026767 z M -140.20092 16.026767 A 1.98426 1.98426 0 0 1 -138.21751 18.010176 A 1.98426 1.98426 0 0 1 -140.20092 19.995049 A 1.98426 1.98426 0 0 1 -142.18579 18.010176 A 1.98426 1.98426 0 0 1 -140.20092 16.026767 z M -3.4013847 23.226511 A 1.98426 1.98426 0 0 1 -1.4179761 25.20992 A 1.98426 1.98426 0 0 1 -3.4013847 27.194793 A 1.98426 1.98426 0 0 1 -5.3862582 25.20992 A 1.98426 1.98426 0 0 1 -3.4013847 23.226511 z M -17.800873 23.226511 A 1.98426 1.98426 0 0 1 -15.817464 25.20992 A 1.98426 1.98426 0 0 1 -17.800873 27.194793 A 1.98426 1.98426 0 0 1 -19.785746 25.20992 A 1.98426 1.98426 0 0 1 -17.800873 23.226511 z M -32.201826 23.226511 A 1.98426 1.98426 0 0 1 -30.216952 25.20992 A 1.98426 1.98426 0 0 1 -32.201826 27.194793 A 1.98426 1.98426 0 0 1 -34.185235 25.20992 A 1.98426 1.98426 0 0 1 -32.201826 23.226511 z M -53.801058 23.226511 A 1.98426 1.98426 0 0 1 -51.81765 25.20992 A 1.98426 1.98426 0 0 1 -53.801058 27.194793 A 1.98426 1.98426 0 0 1 -55.785932 25.20992 A 1.98426 1.98426 0 0 1 -53.801058 23.226511 z M -61.000802 23.226511 A 1.98426 1.98426 0 0 1 -59.017394 25.20992 A 1.98426 1.98426 0 0 1 -61.000802 27.194793 A 1.98426 1.98426 0 0 1 -62.985676 25.20992 A 1.98426 1.98426 0 0 1 -61.000802 23.226511 z M -75.401755 23.226511 A 1.98426 1.98426 0 0 1 -73.416882 25.20992 A 1.98426 1.98426 0 0 1 -75.401755 27.194793 A 1.98426 1.98426 0 0 1 -77.385164 25.20992 A 1.98426 1.98426 0 0 1 -75.401755 23.226511 z M -118.60168 23.226511 A 1.98426 1.98426 0 0 1 -116.61681 25.20992 A 1.98426 1.98426 0 0 1 -118.60168 27.194793 A 1.98426 1.98426 0 0 1 -120.58509 25.20992 A 1.98426 1.98426 0 0 1 -118.60168 23.226511 z M -140.20092 23.226511 A 1.98426 1.98426 0 0 1 -138.21751 25.20992 A 1.98426 1.98426 0 0 1 -140.20092 27.194793 A 1.98426 1.98426 0 0 1 -142.18579 25.20992 A 1.98426 1.98426 0 0 1 -140.20092 23.226511 z M -3.4013847 30.426255 A 1.98426 1.98426 0 0 1 -1.4179761 32.409664 A 1.98426 1.98426 0 0 1 -3.4013847 34.394537 A 1.98426 1.98426 0 0 1 -5.3862582 32.409664 A 1.98426 1.98426 0 0 1 -3.4013847 30.426255 z M -39.40157 30.426255 A 1.98426 1.98426 0 0 1 -37.416697 32.409664 A 1.98426 1.98426 0 0 1 -39.40157 34.394537 A 1.98426 1.98426 0 0 1 -41.386444 32.409664 A 1.98426 1.98426 0 0 1 -39.40157 30.426255 z M -46.601314 30.426255 A 1.98426 1.98426 0 0 1 -44.617906 32.409664 A 1.98426 1.98426 0 0 1 -46.601314 34.394537 A 1.98426 1.98426 0 0 1 -48.586188 32.409664 A 1.98426 1.98426 0 0 1 -46.601314 30.426255 z M -61.000802 30.426255 A 1.98426 1.98426 0 0 1 -59.017394 32.409664 A 1.98426 1.98426 0 0 1 -61.000802 34.394537 A 1.98426 1.98426 0 0 1 -62.985676 32.409664 A 1.98426 1.98426 0 0 1 -61.000802 30.426255 z M -75.401755 30.426255 A 1.98426 1.98426 0 0 1 -73.416882 32.409664 A 1.98426 1.98426 0 0 1 -75.401755 34.394537 A 1.98426 1.98426 0 0 1 -77.385164 32.409664 A 1.98426 1.98426 0 0 1 -75.401755 30.426255 z M -82.6015 30.426255 A 1.98426 1.98426 0 0 1 -80.616626 32.409664 A 1.98426 1.98426 0 0 1 -82.6015 34.394537 A 1.98426 1.98426 0 0 1 -84.584908 32.409664 A 1.98426 1.98426 0 0 1 -82.6015 30.426255 z M -89.801244 30.426255 A 1.98426 1.98426 0 0 1 -87.81637 32.409664 A 1.98426 1.98426 0 0 1 -89.801244 34.394537 A 1.98426 1.98426 0 0 1 -91.786117 32.409664 A 1.98426 1.98426 0 0 1 -89.801244 30.426255 z M -111.40048 30.426255 A 1.98426 1.98426 0 0 1 -109.41707 32.409664 A 1.98426 1.98426 0 0 1 -111.40048 34.394537 A 1.98426 1.98426 0 0 1 -113.38535 32.409664 A 1.98426 1.98426 0 0 1 -111.40048 30.426255 z M -140.20092 30.426255 A 1.98426 1.98426 0 0 1 -138.21751 32.409664 A 1.98426 1.98426 0 0 1 -140.20092 34.394537 A 1.98426 1.98426 0 0 1 -142.18579 32.409664 A 1.98426 1.98426 0 0 1 -140.20092 30.426255 z M -3.4013847 37.625999 A 1.98426 1.98426 0 0 1 -1.4179761 39.610873 A 1.98426 1.98426 0 0 1 -3.4013847 41.594282 A 1.98426 1.98426 0 0 1 -5.3862582 39.610873 A 1.98426 1.98426 0 0 1 -3.4013847 37.625999 z M -10.601129 37.625999 A 1.98426 1.98426 0 0 1 -8.6177202 39.610873 A 1.98426 1.98426 0 0 1 -10.601129 41.594282 A 1.98426 1.98426 0 0 1 -12.586002 39.610873 A 1.98426 1.98426 0 0 1 -10.601129 37.625999 z M -32.201826 37.625999 A 1.98426 1.98426 0 0 1 -30.216952 39.610873 A 1.98426 1.98426 0 0 1 -32.201826 41.594282 A 1.98426 1.98426 0 0 1 -34.185235 39.610873 A 1.98426 1.98426 0 0 1 -32.201826 37.625999 z M -140.20092 37.625999 A 1.98426 1.98426 0 0 1 -138.21751 39.610873 A 1.98426 1.98426 0 0 1 -140.20092 41.594282 A 1.98426 1.98426 0 0 1 -142.18579 39.610873 A 1.98426 1.98426 0 0 1 -140.20092 37.625999 z M -39.40157 52.025488 A 1.98426 1.98426 0 0 1 -37.416697 54.010361 A 1.98426 1.98426 0 0 1 -39.40157 55.995235 A 1.98426 1.98426 0 0 1 -41.386444 54.010361 A 1.98426 1.98426 0 0 1 -39.40157 52.025488 z M -46.601314 52.025488 A 1.98426 1.98426 0 0 1 -44.617906 54.010361 A 1.98426 1.98426 0 0 1 -46.601314 55.995235 A 1.98426 1.98426 0 0 1 -48.586188 54.010361 A 1.98426 1.98426 0 0 1 -46.601314 52.025488 z M -82.6015 52.025488 A 1.98426 1.98426 0 0 1 -80.616626 54.010361 A 1.98426 1.98426 0 0 1 -82.6015 55.995235 A 1.98426 1.98426 0 0 1 -84.584908 54.010361 A 1.98426 1.98426 0 0 1 -82.6015 52.025488 z "
     transform="scale(-1,1)" />
</svg>
